<svg xmlns="http://www.w3.org/2000/svg" xmlns:xlink="http://www.w3.org/1999/xlink" width="1000" zoomAndPan="magnify" viewBox="0 0 750 374.999991" height="500" preserveAspectRatio="xMidYMid meet" version="1.0"><defs><g/></defs><g fill="#ffffff" fill-opacity="1"><g transform="translate(86.5852, 218.249986)"><g><path d="M 56.234375 -15.65625 L 56.234375 0 L 5.015625 0 L 5.015625 -61.59375 L 55.09375 -61.59375 L 55.09375 -45.9375 L 25.4375 -45.9375 L 25.4375 -38.71875 L 51.484375 -38.71875 L 51.484375 -23.765625 L 25.4375 -23.765625 L 25.4375 -15.65625 Z M 56.234375 -15.65625 "/></g></g></g><g fill="#ffffff" fill-opacity="1"><g transform="translate(142.550593, 218.249986)"><g><path d="M 30.265625 0.875 C 24.816406 0.875 19.9375 -0.175781 15.625 -2.28125 C 11.3125 -4.394531 7.9375 -7.359375 5.5 -11.171875 C 3.0625 -14.984375 1.84375 -19.296875 1.84375 -24.109375 C 1.84375 -28.921875 3.0625 -33.21875 5.5 -37 C 7.9375 -40.789062 11.3125 -43.738281 15.625 -45.84375 C 19.9375 -47.957031 24.816406 -49.015625 30.265625 -49.015625 C 36.140625 -49.015625 41.15625 -47.753906 45.3125 -45.234375 C 49.476562 -42.710938 52.351562 -39.222656 53.9375 -34.765625 L 38.546875 -27.1875 C 36.671875 -31.414062 33.882812 -33.53125 30.1875 -33.53125 C 27.832031 -33.53125 25.878906 -32.707031 24.328125 -31.0625 C 22.773438 -29.414062 22 -27.097656 22 -24.109375 C 22 -21.054688 22.773438 -18.707031 24.328125 -17.0625 C 25.878906 -15.425781 27.832031 -14.609375 30.1875 -14.609375 C 33.882812 -14.609375 36.671875 -16.71875 38.546875 -20.9375 L 53.9375 -13.375 C 52.351562 -8.914062 49.476562 -5.425781 45.3125 -2.90625 C 41.15625 -0.382812 36.140625 0.875 30.265625 0.875 Z M 30.265625 0.875 "/></g></g></g><g fill="#ffffff" fill-opacity="1"><g transform="translate(193.41222, 218.249986)"><g><path d="M 29.828125 0.875 C 24.492188 0.875 19.695312 -0.191406 15.4375 -2.328125 C 11.1875 -4.472656 7.859375 -7.4375 5.453125 -11.21875 C 3.046875 -15 1.84375 -19.296875 1.84375 -24.109375 C 1.84375 -28.921875 3.046875 -33.21875 5.453125 -37 C 7.859375 -40.789062 11.1875 -43.738281 15.4375 -45.84375 C 19.695312 -47.957031 24.492188 -49.015625 29.828125 -49.015625 C 35.222656 -49.015625 40.046875 -47.957031 44.296875 -45.84375 C 48.554688 -43.738281 51.875 -40.789062 54.25 -37 C 56.625 -33.21875 57.8125 -28.921875 57.8125 -24.109375 C 57.8125 -19.296875 56.625 -15 54.25 -11.21875 C 51.875 -7.4375 48.554688 -4.472656 44.296875 -2.328125 C 40.046875 -0.191406 35.222656 0.875 29.828125 0.875 Z M 29.828125 -14.609375 C 32.117188 -14.609375 33.992188 -15.441406 35.453125 -17.109375 C 36.921875 -18.785156 37.65625 -21.117188 37.65625 -24.109375 C 37.65625 -27.097656 36.921875 -29.414062 35.453125 -31.0625 C 33.992188 -32.707031 32.117188 -33.53125 29.828125 -33.53125 C 27.546875 -33.53125 25.671875 -32.707031 24.203125 -31.0625 C 22.734375 -29.414062 22 -27.097656 22 -24.109375 C 22 -21.117188 22.734375 -18.785156 24.203125 -17.109375 C 25.671875 -15.441406 27.546875 -14.609375 29.828125 -14.609375 Z M 29.828125 -14.609375 "/></g></g></g><g fill="#ffffff" fill-opacity="1"><g transform="translate(249.817593, 218.249986)"><g><path d="M 70.84375 -61.59375 L 44.796875 0 L 24.375 0 L -1.671875 -61.59375 L 20.6875 -61.59375 L 35.375 -25.609375 L 50.421875 -61.59375 Z M 70.84375 -61.59375 "/></g></g></g><g fill="#ffffff" fill-opacity="1"><g transform="translate(315.72655, 218.249986)"><g><path d="M 55.609375 -24.109375 C 55.609375 -23.816406 55.523438 -22.265625 55.359375 -19.453125 L 21.90625 -19.453125 C 22.613281 -17.628906 23.785156 -16.234375 25.421875 -15.265625 C 27.066406 -14.296875 29.125 -13.8125 31.59375 -13.8125 C 33.707031 -13.8125 35.484375 -14.078125 36.921875 -14.609375 C 38.359375 -15.140625 39.925781 -16.050781 41.625 -17.34375 L 52.015625 -6.859375 C 47.316406 -1.703125 40.300781 0.875 30.96875 0.875 C 25.164062 0.875 20.0625 -0.191406 15.65625 -2.328125 C 11.257812 -4.472656 7.859375 -7.453125 5.453125 -11.265625 C 3.046875 -15.078125 1.84375 -19.359375 1.84375 -24.109375 C 1.84375 -28.921875 3.03125 -33.21875 5.40625 -37 C 7.78125 -40.789062 11.035156 -43.738281 15.171875 -45.84375 C 19.316406 -47.957031 23.96875 -49.015625 29.125 -49.015625 C 34 -49.015625 38.441406 -48.046875 42.453125 -46.109375 C 46.472656 -44.171875 49.671875 -41.320312 52.046875 -37.5625 C 54.421875 -33.8125 55.609375 -29.328125 55.609375 -24.109375 Z M 29.296875 -35.46875 C 27.242188 -35.46875 25.539062 -34.910156 24.1875 -33.796875 C 22.84375 -32.679688 21.96875 -31.097656 21.5625 -29.046875 L 37.046875 -29.046875 C 36.640625 -31.035156 35.757812 -32.601562 34.40625 -33.75 C 33.0625 -34.894531 31.359375 -35.46875 29.296875 -35.46875 Z M 29.296875 -35.46875 "/></g></g></g><g fill="#ffffff" fill-opacity="1"><g transform="translate(369.932014, 218.249986)"><g><path d="M 37.84375 -49.015625 C 43.769531 -49.015625 48.535156 -47.222656 52.140625 -43.640625 C 55.742188 -40.066406 57.546875 -34.671875 57.546875 -27.453125 L 57.546875 0 L 37.65625 0 L 37.65625 -24.03125 C 37.65625 -29.539062 35.691406 -32.296875 31.765625 -32.296875 C 29.535156 -32.296875 27.726562 -31.515625 26.34375 -29.953125 C 24.96875 -28.398438 24.28125 -25.953125 24.28125 -22.609375 L 24.28125 0 L 4.40625 0 L 4.40625 -48.140625 L 23.3125 -48.140625 L 23.3125 -43.390625 C 25.195312 -45.265625 27.367188 -46.671875 29.828125 -47.609375 C 32.296875 -48.546875 34.96875 -49.015625 37.84375 -49.015625 Z M 37.84375 -49.015625 "/></g></g></g><g fill="#ffffff" fill-opacity="1"><g transform="translate(428.449313, 218.249986)"><g><path d="M 39.859375 -1.671875 C 36.867188 0.0234375 32.789062 0.875 27.625 0.875 C 20.882812 0.875 15.691406 -0.75 12.046875 -4 C 8.410156 -7.257812 6.59375 -12.144531 6.59375 -18.65625 L 6.59375 -30.96875 L 0 -30.96875 L 0 -45.5 L 6.59375 -45.5 L 6.59375 -58.953125 L 26.484375 -58.953125 L 26.484375 -45.5 L 36.34375 -45.5 L 36.34375 -30.96875 L 26.484375 -30.96875 L 26.484375 -18.828125 C 26.484375 -17.359375 26.863281 -16.210938 27.625 -15.390625 C 28.394531 -14.578125 29.394531 -14.171875 30.625 -14.171875 C 32.320312 -14.171875 33.816406 -14.609375 35.109375 -15.484375 Z M 39.859375 -1.671875 "/></g></g></g><g fill="#ffffff" fill-opacity="1"><g transform="translate(465.67154, 218.249986)"><g><path d="M 57.03125 -48.140625 L 57.03125 0 L 38.109375 0 L 38.109375 -4.578125 C 36.347656 -2.753906 34.289062 -1.390625 31.9375 -0.484375 C 29.59375 0.421875 27.101562 0.875 24.46875 0.875 C 18.363281 0.875 13.460938 -0.984375 9.765625 -4.703125 C 6.066406 -8.429688 4.21875 -14.050781 4.21875 -21.5625 L 4.21875 -48.140625 L 24.109375 -48.140625 L 24.109375 -24.984375 C 24.109375 -21.703125 24.632812 -19.359375 25.6875 -17.953125 C 26.75 -16.546875 28.304688 -15.84375 30.359375 -15.84375 C 32.296875 -15.84375 33.910156 -16.617188 35.203125 -18.171875 C 36.492188 -19.722656 37.140625 -22.171875 37.140625 -25.515625 L 37.140625 -48.140625 Z M 57.03125 -48.140625 "/></g></g></g><g fill="#ffffff" fill-opacity="1"><g transform="translate(523.836819, 218.249986)"><g><path d="M 23.3125 -42.9375 C 26.832031 -46.988281 32.023438 -49.015625 38.890625 -49.015625 L 38.890625 -31.421875 C 37.304688 -31.648438 35.84375 -31.765625 34.5 -31.765625 C 27.6875 -31.765625 24.28125 -28.304688 24.28125 -21.390625 L 24.28125 0 L 4.40625 0 L 4.40625 -48.140625 L 23.3125 -48.140625 Z M 23.3125 -42.9375 "/></g></g></g><g fill="#ffffff" fill-opacity="1"><g transform="translate(560.707071, 218.249986)"><g><path d="M 25.953125 -49.015625 C 34.398438 -49.015625 40.851562 -47.117188 45.3125 -43.328125 C 49.78125 -39.546875 52.015625 -33.726562 52.015625 -25.875 L 52.015625 0 L 33.53125 0 L 33.53125 -6.34375 C 31.238281 -1.53125 26.691406 0.875 19.890625 0.875 C 16.078125 0.875 12.832031 0.21875 10.15625 -1.09375 C 7.488281 -2.414062 5.46875 -4.207031 4.09375 -6.46875 C 2.71875 -8.726562 2.03125 -11.265625 2.03125 -14.078125 C 2.03125 -18.828125 3.847656 -22.429688 7.484375 -24.890625 C 11.117188 -27.359375 16.632812 -28.59375 24.03125 -28.59375 L 32.03125 -28.59375 C 31.382812 -32.351562 28.363281 -34.234375 22.96875 -34.234375 C 20.800781 -34.234375 18.601562 -33.894531 16.375 -33.21875 C 14.144531 -32.539062 12.234375 -31.617188 10.640625 -30.453125 L 4.3125 -43.5625 C 7.070312 -45.257812 10.398438 -46.59375 14.296875 -47.5625 C 18.203125 -48.53125 22.085938 -49.015625 25.953125 -49.015625 Z M 25.875 -11.09375 C 27.28125 -11.09375 28.539062 -11.472656 29.65625 -12.234375 C 30.769531 -12.992188 31.59375 -14.132812 32.125 -15.65625 L 32.125 -19.015625 L 27.1875 -19.015625 C 23.144531 -19.015625 21.125 -17.660156 21.125 -14.953125 C 21.125 -13.835938 21.546875 -12.914062 22.390625 -12.1875 C 23.242188 -11.457031 24.40625 -11.09375 25.875 -11.09375 Z M 25.875 -11.09375 "/></g></g></g><g fill="#ffffff" fill-opacity="1"><g transform="translate(613.680625, 218.249986)"><g><path d="M 23.234375 0.875 C 19.128906 0.875 15.082031 0.4375 11.09375 -0.4375 C 7.101562 -1.320312 3.875 -2.46875 1.40625 -3.875 L 6.859375 -16.984375 C 9.085938 -15.628906 11.726562 -14.570312 14.78125 -13.8125 C 17.832031 -13.050781 20.796875 -12.671875 23.671875 -12.671875 C 25.960938 -12.671875 27.5625 -12.859375 28.46875 -13.234375 C 29.375 -13.617188 29.828125 -14.191406 29.828125 -14.953125 C 29.828125 -15.722656 29.253906 -16.253906 28.109375 -16.546875 C 26.972656 -16.835938 25.113281 -17.128906 22.53125 -17.421875 C 18.59375 -17.890625 15.242188 -18.488281 12.484375 -19.21875 C 9.734375 -19.957031 7.316406 -21.378906 5.234375 -23.484375 C 3.148438 -25.597656 2.109375 -28.625 2.109375 -32.5625 C 2.109375 -35.664062 3.046875 -38.445312 4.921875 -40.90625 C 6.804688 -43.375 9.609375 -45.34375 13.328125 -46.8125 C 17.054688 -48.28125 21.53125 -49.015625 26.75 -49.015625 C 30.382812 -49.015625 33.945312 -48.675781 37.4375 -48 C 40.9375 -47.320312 43.914062 -46.34375 46.375 -45.0625 L 40.921875 -31.9375 C 36.691406 -34.289062 32.054688 -35.46875 27.015625 -35.46875 C 22.671875 -35.46875 20.5 -34.703125 20.5 -33.171875 C 20.5 -32.410156 21.085938 -31.867188 22.265625 -31.546875 C 23.441406 -31.222656 25.289062 -30.914062 27.8125 -30.625 C 31.738281 -30.15625 35.066406 -29.535156 37.796875 -28.765625 C 40.523438 -28.003906 42.929688 -26.566406 45.015625 -24.453125 C 47.097656 -22.347656 48.140625 -19.332031 48.140625 -15.40625 C 48.140625 -12.40625 47.195312 -9.671875 45.3125 -7.203125 C 43.4375 -4.742188 40.617188 -2.78125 36.859375 -1.3125 C 33.109375 0.144531 28.566406 0.875 23.234375 0.875 Z M 23.234375 0.875 "/></g></g></g></svg>